# xmcd CD database file generated by Grip 2.92
# 
# Track frame offsets:
#       150
#       13941
#       28345
#       41545
#       54788
#       67888
#       80992
#       94534
#       107913
#       121953
#       136304
#       150384
#       163625
#       177704
#       191292
#       204989
#       220018
#       235420
#       250025
#       264593
#       278735
# 
# Disc length: 3905 seconds
# 
# Revision: 3
# Processed by: cddbd v1.4b41PL1 Copyright (c) Steve Scherf et al.
# Submitted via: Grip 2.92
# 
DISCID=210f3f15
DTITLE=Leake County Revelers - Complete Recorded Works, Vol. 2
DYEAR=1900
DGENRE=
TTITLE0=Memories Waltz
TTITLE1=Where The Silv'ry Colorado Wends Its Way
TTITLE2=Georgia Camp Meeting
TTITLE3=I'm Gwine Back to Dixie
TTITLE4=Dry Town Blues
TTITLE5=Saturday Night Breakdown
TTITLE6=Good Fellow
TTITLE7=Uncle Ned
TTITLE8=Leake County Blues
TTITLE9=Lonesome Blues
TTITLE10=Sweet Rose of Heaven
TTITLE11=Beautiful Bells
TTITLE12=Mississippi Moon Waltz
TTITLE13=Courtin' Days Waltz
TTITLE14=Thirty-First Street Blues
TTITLE15=Picture No Artist Can Paint
TTITLE16=When It's Springtime In The Rockies
TTITLE17=Texas Fair
TTITLE18=Mississippi Breakdown
TTITLE19=Lazy Kate
TTITLE20=Jungle Waltz
EXTD=
EXTT0=
EXTT1=
EXTT2=
EXTT3=
EXTT4=
EXTT5=
EXTT6=
EXTT7=
EXTT8=
EXTT9=
EXTT10=
EXTT11=
EXTT12=
EXTT13=
EXTT14=
EXTT15=
EXTT16=
EXTT17=
EXTT18=
EXTT19=
EXTT20=
PLAYORDER=
